<?xml version="1.0" encoding="UTF-8" standalone="no"?>
<!-- Created with Inkscape (http://www.inkscape.org/) -->

<svg
   width="156mm"
   height="156mm"
   viewBox="0 0 156 156"
   version="1.1"
   id="svg1"
   xml:space="preserve"
   inkscape:version="1.4 (e7c3feb100, 2024-10-09)"
   sodipodi:docname="AH Design Guideline.svg"
   inkscape:export-batch-path="/home/sadat/Documents/Arcane Hive/Branding"
   inkscape:export-batch-name="Arcane-Hive"
   xmlns:inkscape="http://www.inkscape.org/namespaces/inkscape"
   xmlns:sodipodi="http://sodipodi.sourceforge.net/DTD/sodipodi-0.dtd"
   xmlns="http://www.w3.org/2000/svg"
   xmlns:svg="http://www.w3.org/2000/svg"><sodipodi:namedview
     id="namedview1"
     pagecolor="#ffffff"
     bordercolor="#ffffff"
     borderopacity="1"
     inkscape:showpageshadow="0"
     inkscape:pageopacity="0"
     inkscape:pagecheckerboard="1"
     inkscape:deskcolor="#d1d1d1"
     inkscape:document-units="mm"
     showgrid="false"
     inkscape:zoom="0.11874146"
     inkscape:cx="-1646.4341"
     inkscape:cy="1406.4169"
     inkscape:window-width="1920"
     inkscape:window-height="980"
     inkscape:window-x="0"
     inkscape:window-y="0"
     inkscape:window-maximized="1"
     inkscape:current-layer="layer1"><inkscape:grid
       id="grid1"
       units="mm"
       originx="512.49298"
       originy="269.05881"
       spacingx="0.26458333"
       spacingy="0.26458334"
       empcolor="#0099e5"
       empopacity="0.30196078"
       color="#0099e5"
       opacity="0.14901961"
       empspacing="5"
       enabled="true"
       visible="false" /><inkscape:page
       x="0"
       y="0"
       width="156"
       height="156"
       id="page1"
       margin="0"
       bleed="0"
       inkscape:export-filename="Logo2.png"
       inkscape:export-xdpi="300"
       inkscape:export-ydpi="300" /></sodipodi:namedview><defs
     id="defs1" /><g
     inkscape:label="Layer 1"
     inkscape:groupmode="layer"
     id="layer1"
     transform="translate(512.49297,269.0588)"><g
       id="g3"
       transform="matrix(0.26458333,0,0,0.26458333,-725.72517,-269.82008)"
       inkscape:label="Logo V2"><g
         id="g2-5"
         transform="translate(104.60683,163.38189)"><text
           xml:space="preserve"
           style="font-style:normal;font-variant:normal;font-weight:normal;font-stretch:normal;font-size:1.78294px;font-family:'Noto Sans';-inkscape-font-specification:'Noto Sans';font-variant-numeric:ordinal;text-align:start;letter-spacing:0.0382059px;word-spacing:0px;writing-mode:lr-tb;direction:ltr;text-anchor:start;white-space:pre;inline-size:15.875;display:inline;fill:#e67113;fill-opacity:1;stroke-width:0.0648311;stroke-linecap:square;stroke-linejoin:bevel;paint-order:fill markers stroke"
           x="129.64583"
           y="26.458332"
           id="text13-5-2"
           transform="matrix(29.132614,0,0,29.165313,-2881.9385,-523.51257)"><tspan
             x="129.64583"
             y="26.458332"
             id="tspan2"><tspan
               style="stroke-width:0.0648312"
               id="tspan1">ARCANE
</tspan></tspan></text><text
           xml:space="preserve"
           style="font-style:normal;font-variant:normal;font-weight:normal;font-stretch:normal;font-size:1.78294px;font-family:'Noto Sans';-inkscape-font-specification:'Noto Sans';font-variant-numeric:ordinal;text-align:start;letter-spacing:0.0382059px;word-spacing:0px;writing-mode:lr-tb;direction:ltr;text-anchor:start;white-space:pre;inline-size:15.875;display:inline;fill:#072239;fill-opacity:1;stroke-width:0.0648311;stroke-linecap:square;stroke-linejoin:bevel;paint-order:fill markers stroke"
           x="129.64583"
           y="26.458332"
           id="text13-1-7-7"
           transform="matrix(29.132614,0,0,29.165313,-2837.0309,-463.51258)"><tspan
             x="129.64583"
             y="26.458332"
             id="tspan3">HIVE</tspan></text><text
           xml:space="preserve"
           style="font-style:normal;font-variant:normal;font-weight:normal;font-stretch:normal;font-size:12.9621px;font-family:'Noto Sans';-inkscape-font-specification:'Noto Sans';font-variant-numeric:ordinal;text-align:start;letter-spacing:0.277759px;word-spacing:0px;writing-mode:lr-tb;direction:ltr;text-anchor:start;fill:#888888;fill-opacity:1;stroke-width:1.88977;stroke-linecap:square;stroke-linejoin:bevel;paint-order:fill markers stroke"
           x="879.55615"
           y="340.02469"
           id="text15-2-2"
           transform="scale(0.99943932,1.000561)"><tspan
             sodipodi:role="line"
             id="tspan15-6-6"
             x="879.55615"
             y="340.02469"
             style="fill:#888888;fill-opacity:1;stroke-width:1.88977">RELIABILITY · OPTIMIZATION · VALUE</tspan></text><line
           x1="962.16266"
           y1="349.62213"
           x2="1030.1627"
           y2="349.62213"
           stroke="#F97316"
           stroke-width="1"
           opacity="0.5"
           style="color:#ffffff;font-weight:400;font-size:16px;font-family:'Anthropic Sans', '-apple-system', BlinkMacSystemFont, 'Segoe UI', sans-serif;dominant-baseline:auto;text-anchor:start;opacity:0.5;fill:#000000;stroke:#f97316;stroke-width:1px;stroke-linecap:butt;stroke-linejoin:miter"
           id="line42-1" /></g><g
         id="g42-9"
         inkscape:export-filename="g42.png"
         inkscape:export-xdpi="96"
         inkscape:export-ydpi="96"
         transform="translate(756.60748,50.723952)"
         inkscape:label="LogoV2"><path
           style="color:#ffffff;opacity:0.25;fill:#2e2e4a;stroke-width:1"
           d="M 340,31.132812 231.12478,97.568359 V 230.43164 L 340,296.86719 448.87522,230.43164 V 97.568359 Z m 0,1.734375 107.45201,65.564454 V 229.56836 L 340,295.13477 232.54799,229.56836 V 98.431641 Z"
           id="polygon2-2"
           inkscape:export-filename="logo2.png"
           inkscape:export-xdpi="96"
           inkscape:export-ydpi="96" /><path
           style="color:#ffffff;opacity:0.18;fill:#2e2e4a;stroke-width:1"
           d="M 340,41.130859 238.71521,103.57031 V 222.41602 L 340,288.88281 441.28479,222.41602 V 103.57031 Z m 0,1.738282 99.86158,61.560549 V 221.58398 L 340,287.11719 240.13842,221.58398 V 104.42969 Z"
           id="polygon3-0" /><g
           id="polygon4-23"><path
             style="color:#ffffff;fill:#1c1c2e;stroke-width:1"
             d="M 340,262 254.60767,212 V 112 L 340,62 l 85.39233,50 v 100 z"
             id="path3-7" /><path
             style="color:#ffffff;fill:#f97316;stroke-width:1"
             d="M 340,60.570312 253.42167,111.26367 V 212.73633 L 340,263.42969 426.57833,212.73633 V 111.26367 Z m 0,2.859375 84.20632,49.306643 v 98.52734 L 340,260.57031 255.79368,211.26367 v -98.52734 z"
             id="path4-5" /></g><polygon
           points="316,156 316,128 340,114 364,128 364,156 340,170 "
           fill="#F97316"
           style="color:#ffffff;font-weight:400;font-size:16px;font-family:'Anthropic Sans', '-apple-system', BlinkMacSystemFont, 'Segoe UI', sans-serif;dominant-baseline:auto;text-anchor:start;fill:#f97316;stroke:none;stroke-width:1px;stroke-linecap:butt;stroke-linejoin:miter"
           id="polygon5-3-2"
           transform="translate(-2.6367188e-6,20.000006)" /><polygon
           points="324,153 324,131 340,122 356,131 356,153 340,162 "
           fill="#2B2D42"
           style="color:#ffffff;font-weight:400;font-size:16px;font-family:'Anthropic Sans', '-apple-system', BlinkMacSystemFont, 'Segoe UI', sans-serif;dominant-baseline:auto;text-anchor:start;fill:#2b2d42;stroke:none;stroke-width:1px;stroke-linecap:butt;stroke-linejoin:miter"
           id="polygon6-562-6"
           transform="translate(-2.6367188e-6,20.000006)" /><circle
           cx="340"
           cy="162"
           r="6"
           fill="#F97316"
           style="color:#ffffff;font-weight:400;font-size:16px;font-family:'Anthropic Sans', '-apple-system', BlinkMacSystemFont, 'Segoe UI', sans-serif;dominant-baseline:auto;text-anchor:start;fill:#f97316;stroke:none;stroke-width:1px;stroke-linecap:butt;stroke-linejoin:miter"
           id="circle6-6" /><polygon
           points="340,70 364,84 364,112 340,126 316,112 316,84 "
           fill="none"
           stroke="#F97316"
           stroke-width="1.8"
           opacity="0.5"
           style="color:#ffffff;font-weight:400;font-size:16px;font-family:'Anthropic Sans', '-apple-system', BlinkMacSystemFont, 'Segoe UI', sans-serif;dominant-baseline:auto;text-anchor:start;opacity:1;fill:none;fill-opacity:0.501098;stroke:#a8a8ac;stroke-width:1.8px;stroke-linecap:butt;stroke-linejoin:miter;stroke-opacity:1"
           id="polygon7-91-4"
           transform="translate(-2.6367188e-6,8.000006)" /><polygon
           points="364,84 388,98 388,126 364,140 340,126 340,98 "
           fill="none"
           stroke="#F97316"
           stroke-width="1.8"
           opacity="0.5"
           style="color:#ffffff;font-weight:400;font-size:16px;font-family:'Anthropic Sans', '-apple-system', BlinkMacSystemFont, 'Segoe UI', sans-serif;dominant-baseline:auto;text-anchor:start;opacity:1;fill:none;fill-opacity:0.501098;stroke:#4b4b50;stroke-width:1.8px;stroke-linecap:butt;stroke-linejoin:miter;stroke-opacity:1"
           id="polygon8-27-9"
           transform="translate(-2.6367188e-6,8.000006)" /><polygon
           points="340,198 340,170 364,156 388,170 388,198 364,212 "
           fill="none"
           stroke="#F97316"
           stroke-width="1.8"
           opacity="0.5"
           style="color:#ffffff;font-weight:400;font-size:16px;font-family:'Anthropic Sans', '-apple-system', BlinkMacSystemFont, 'Segoe UI', sans-serif;dominant-baseline:auto;text-anchor:start;opacity:1;fill:none;fill-opacity:0.501098;stroke:#4b4b50;stroke-width:1.8px;stroke-linecap:butt;stroke-linejoin:miter;stroke-opacity:1"
           id="polygon9-0-5"
           transform="translate(-2.6367188e-6,20.000006)" /><polygon
           points="316,212 316,184 340,170 364,184 364,212 340,226 "
           fill="none"
           stroke="#F97316"
           stroke-width="1.8"
           opacity="0.5"
           style="color:#ffffff;font-weight:400;font-size:16px;font-family:'Anthropic Sans', '-apple-system', BlinkMacSystemFont, 'Segoe UI', sans-serif;dominant-baseline:auto;text-anchor:start;opacity:1;fill:none;fill-opacity:0.501098;stroke:#a8a8ac;stroke-width:1.8px;stroke-linecap:butt;stroke-linejoin:miter;stroke-opacity:1"
           id="polygon10-9-0"
           transform="translate(-2.6367188e-6,20.000006)" /><polygon
           points="292,198 292,170 316,156 340,170 340,198 316,212 "
           fill="none"
           stroke="#F97316"
           stroke-width="1.8"
           opacity="0.5"
           style="color:#ffffff;font-weight:400;font-size:16px;font-family:'Anthropic Sans', '-apple-system', BlinkMacSystemFont, 'Segoe UI', sans-serif;dominant-baseline:auto;text-anchor:start;opacity:1;fill:none;fill-opacity:0.501098;stroke:#4b4b50;stroke-width:1.8px;stroke-linecap:butt;stroke-linejoin:miter;stroke-opacity:1"
           id="polygon11-3-4"
           transform="translate(-2.6367188e-6,20.000006)" /><polygon
           points="316,84 340,98 340,126 316,140 292,126 292,98 "
           fill="none"
           stroke="#F97316"
           stroke-width="1.8"
           opacity="0.5"
           style="color:#ffffff;font-weight:400;font-size:16px;font-family:'Anthropic Sans', '-apple-system', BlinkMacSystemFont, 'Segoe UI', sans-serif;dominant-baseline:auto;text-anchor:start;opacity:1;fill:none;fill-opacity:0.501098;stroke:#4b4b50;stroke-width:1.8px;stroke-linecap:butt;stroke-linejoin:miter;stroke-opacity:1"
           id="polygon12-6-8"
           transform="translate(-2.6367188e-6,8.000006)" /><path
           style="color:#ffffff;opacity:0.4;fill:#f97316;stroke-linecap:round"
           d="m 274.7444,191.96525 a 0.5,0.5 0 0 0 -0.35352,0.14648 l -20,20 a 0.5,0.5 0 0 0 0,0.70704 0.5,0.5 0 0 0 0.70704,0 l 20,-20 a 0.5,0.5 0 0 0 0,-0.70704 0.5,0.5 0 0 0 -0.35352,-0.14648 z"
           id="line17-0" /><path
           style="color:#ffffff;opacity:0.4;fill:#f97316;stroke-linecap:round"
           d="m 226.7444,211.96525 a 0.5,0.5 0 0 0 -0.5,0.5 0.5,0.5 0 0 0 0.5,0.5 h 28 a 0.5,0.5 0 0 0 0.5,-0.5 0.5,0.5 0 0 0 -0.5,-0.5 z"
           id="line18-36" /><path
           style="color:#ffffff;opacity:0.4;fill:#f97316;stroke-linecap:round"
           d="m 226.7444,211.96525 a 0.5,0.5 0 0 0 -0.35352,0.14648 l -20,20 a 0.5,0.5 0 0 0 0,0.70704 0.5,0.5 0 0 0 0.70704,0 l 20,-20 a 0.5,0.5 0 0 0 0,-0.70704 0.5,0.5 0 0 0 -0.35352,-0.14648 z"
           id="line19-1" /><circle
           cx="226.74438"
           cy="212.46524"
           r="3"
           style="color:#ffffff;opacity:0.4;fill:#f97316;stroke-width:1px"
           id="circle19-0" /><path
           style="color:#ffffff;opacity:0.4;fill:#f97316;stroke-linecap:round"
           d="m 424.84684,111.92493 -20,10 a 0.5,0.5 0 0 0 -0.22461,0.66993 0.5,0.5 0 0 0 0.66993,0.22461 l 20,-10 a 0.5,0.5 0 0 0 0.22461,-0.66993 0.5,0.5 0 0 0 -0.66993,-0.22461 z"
           id="line20-6" /><path
           style="color:#ffffff;opacity:0.4;fill:#f97316;stroke-linecap:round"
           d="m 425.0695,111.8722 a 0.5,0.5 0 0 0 -0.5,0.5 0.5,0.5 0 0 0 0.5,0.5 h 30 a 0.5,0.5 0 0 0 0.5,-0.5 0.5,0.5 0 0 0 -0.5,-0.5 z"
           id="line21-3" /><path
           style="color:#ffffff;opacity:0.4;fill:#f97316;stroke-linecap:round"
           d="m 471.0695,95.872188 a 0.5,0.5 0 0 0 -0.35352,0.146484 l -16,16.000008 a 0.5,0.5 0 0 0 0,0.70704 0.5,0.5 0 0 0 0.70704,0 l 16,-16.000016 a 0.5,0.5 0 0 0 0,-0.707032 0.5,0.5 0 0 0 -0.35352,-0.146484 z"
           id="line22-2" /><circle
           cx="455.06952"
           cy="112.37218"
           r="3"
           style="color:#ffffff;opacity:0.4;fill:#f97316;stroke-width:1px"
           id="circle22-0" /><path
           style="color:#ffffff;fill:#f97316;stroke-width:1;stroke-linecap:round"
           d="m 426.10902,211.16615 a 0.81538132,0.75 0 0 0 -0.81538,0.75 0.81538132,0.75 0 0 0 0.81538,0.75 h 38.05113 a 0.81538132,0.75 0 0 0 0.81538,-0.75 0.81538132,0.75 0 0 0 -0.81538,-0.75 z"
           id="line23-6" /><path
           style="color:#ffffff;fill:#f97316;stroke-linecap:round"
           d="m 463.69427,211.38685 a 0.75,0.75 0 0 0 0,1.06055 l 22,22 a 0.75,0.75 0 0 0 1.06055,0 0.75,0.75 0 0 0 0,-1.06055 l -22,-22 a 0.75,0.75 0 0 0 -1.06055,0 z"
           id="line24-1" /><circle
           cx="464.22528"
           cy="211.91678"
           r="3.5"
           style="color:#ffffff;fill:#f97316;stroke-width:1px"
           id="circle24-5" /><circle
           cx="486.22528"
           cy="233.91678"
           r="2.5"
           style="color:#ffffff;opacity:0.4;fill:#f97316;stroke-width:1px"
           id="circle25-5" /><path
           style="color:#ffffff;fill:#f97316;stroke-linecap:round"
           d="m 250.33594,111.33008 a 0.75,0.75 0 0 0 -1.00586,0.33398 0.75,0.75 0 0 0 0.33398,1.00586 l 20,10 a 0.75,0.75 0 0 0 1.00586,-0.33398 0.75,0.75 0 0 0 -0.33398,-1.00586 z"
           id="line25-4" /><path
           style="color:#ffffff;fill:#f97316;stroke-linecap:round"
           d="m 218,111.25 a 0.75,0.75 0 0 0 -0.75,0.75 0.75,0.75 0 0 0 0.75,0.75 h 32 A 0.75,0.75 0 0 0 250.75,112 0.75,0.75 0 0 0 250,111.25 Z"
           id="line26-7" /><circle
           cx="250"
           cy="112"
           r="3.5"
           style="color:#ffffff;fill:#f97316;stroke-width:1px"
           id="circle26-65" /><path
           style="color:#ffffff;opacity:0.4;fill:#f97316;stroke-linecap:round"
           d="m 200,93.5 a 0.5,0.5 0 0 0 -0.35352,0.146484 0.5,0.5 0 0 0 0,0.707032 l 18,18.000004 a 0.5,0.5 0 0 0 0.70704,0 0.5,0.5 0 0 0 0,-0.70704 l -18,-17.999996 A 0.5,0.5 0 0 0 200,93.5 Z"
           id="line27-6" /><circle
           cx="340"
           cy="162"
           r="13"
           fill="#F97316"
           opacity="0.15"
           style="color:#ffffff;opacity:0.15;fill:#f97316;stroke-width:1px"
           id="circle28-3" /><circle
           cx="340"
           cy="162"
           r="6"
           fill="#F97316"
           style="color:#ffffff;fill:#f97316;stroke-width:1px"
           id="circle29-74" /></g></g></g></svg>
