<?xml version='1.0' encoding='UTF-8'?>
<svg width="41mm" height="41mm" version="1.1" viewBox="0 0 41 41" xmlns="http://www.w3.org/2000/svg"><path d="M4,4H5V5H4zM5,4H6V5H5zM6,4H7V5H6zM7,4H8V5H7zM8,4H9V5H8zM9,4H10V5H9zM10,4H11V5H10zM13,4H14V5H13zM14,4H15V5H14zM17,4H18V5H17zM18,4H19V5H18zM19,4H20V5H19zM21,4H22V5H21zM22,4H23V5H22zM23,4H24V5H23zM24,4H25V5H24zM27,4H28V5H27zM28,4H29V5H28zM30,4H31V5H30zM31,4H32V5H31zM32,4H33V5H32zM33,4H34V5H33zM34,4H35V5H34zM35,4H36V5H35zM36,4H37V5H36zM4,5H5V6H4zM10,5H11V6H10zM13,5H14V6H13zM14,5H15V6H14zM16,5H17V6H16zM17,5H18V6H17zM18,5H19V6H18zM19,5H20V6H19zM20,5H21V6H20zM21,5H22V6H21zM22,5H23V6H22zM24,5H25V6H24zM26,5H27V6H26zM27,5H28V6H27zM30,5H31V6H30zM36,5H37V6H36zM4,6H5V7H4zM6,6H7V7H6zM7,6H8V7H7zM8,6H9V7H8zM10,6H11V7H10zM14,6H15V7H14zM15,6H16V7H15zM17,6H18V7H17zM18,6H19V7H18zM19,6H20V7H19zM23,6H24V7H23zM27,6H28V7H27zM30,6H31V7H30zM32,6H33V7H32zM33,6H34V7H33zM34,6H35V7H34zM36,6H37V7H36zM4,7H5V8H4zM6,7H7V8H6zM7,7H8V8H7zM8,7H9V8H8zM10,7H11V8H10zM13,7H14V8H13zM14,7H15V8H14zM16,7H17V8H16zM17,7H18V8H17zM18,7H19V8H18zM20,7H21V8H20zM22,7H23V8H22zM26,7H27V8H26zM27,7H28V8H27zM28,7H29V8H28zM30,7H31V8H30zM32,7H33V8H32zM33,7H34V8H33zM34,7H35V8H34zM36,7H37V8H36zM4,8H5V9H4zM6,8H7V9H6zM7,8H8V9H7zM8,8H9V9H8zM10,8H11V9H10zM12,8H13V9H12zM13,8H14V9H13zM14,8H15V9H14zM16,8H17V9H16zM17,8H18V9H17zM18,8H19V9H18zM20,8H21V9H20zM23,8H24V9H23zM25,8H26V9H25zM28,8H29V9H28zM30,8H31V9H30zM32,8H33V9H32zM33,8H34V9H33zM34,8H35V9H34zM36,8H37V9H36zM4,9H5V10H4zM10,9H11V10H10zM20,9H21V10H20zM21,9H22V10H21zM22,9H23V10H22zM23,9H24V10H23zM24,9H25V10H24zM25,9H26V10H25zM28,9H29V10H28zM30,9H31V10H30zM36,9H37V10H36zM4,10H5V11H4zM5,10H6V11H5zM6,10H7V11H6zM7,10H8V11H7zM8,10H9V11H8zM9,10H10V11H9zM10,10H11V11H10zM12,10H13V11H12zM14,10H15V11H14zM16,10H17V11H16zM18,10H19V11H18zM20,10H21V11H20zM22,10H23V11H22zM24,10H25V11H24zM26,10H27V11H26zM28,10H29V11H28zM30,10H31V11H30zM31,10H32V11H31zM32,10H33V11H32zM33,10H34V11H33zM34,10H35V11H34zM35,10H36V11H35zM36,10H37V11H36zM12,11H13V12H12zM13,11H14V12H13zM15,11H16V12H15zM18,11H19V12H18zM19,11H20V12H19zM20,11H21V12H20zM21,11H22V12H21zM23,11H24V12H23zM24,11H25V12H24zM26,11H27V12H26zM27,11H28V12H27zM6,12H7V13H6zM7,12H8V13H7zM10,12H11V13H10zM11,12H12V13H11zM12,12H13V13H12zM14,12H15V13H14zM16,12H17V13H16zM20,12H21V13H20zM23,12H24V13H23zM24,12H25V13H24zM25,12H26V13H25zM27,12H28V13H27zM29,12H30V13H29zM30,12H31V13H30zM32,12H33V13H32zM5,13H6V14H5zM6,13H7V14H6zM7,13H8V14H7zM8,13H9V14H8zM11,13H12V14H11zM12,13H13V14H12zM13,13H14V14H13zM14,13H15V14H14zM15,13H16V14H15zM17,13H18V14H17zM19,13H20V14H19zM20,13H21V14H20zM21,13H22V14H21zM23,13H24V14H23zM25,13H26V14H25zM26,13H27V14H26zM27,13H28V14H27zM28,13H29V14H28zM29,13H30V14H29zM30,13H31V14H30zM33,13H34V14H33zM34,13H35V14H34zM35,13H36V14H35zM36,13H37V14H36zM4,14H5V15H4zM5,14H6V15H5zM6,14H7V15H6zM9,14H10V15H9zM10,14H11V15H10zM11,14H12V15H11zM12,14H13V15H12zM16,14H17V15H16zM17,14H18V15H17zM21,14H22V15H21zM22,14H23V15H22zM23,14H24V15H23zM24,14H25V15H24zM26,14H27V15H26zM27,14H28V15H27zM28,14H29V15H28zM30,14H31V15H30zM33,14H34V15H33zM34,14H35V15H34zM35,14H36V15H35zM36,14H37V15H36zM5,15H6V16H5zM6,15H7V16H6zM7,15H8V16H7zM8,15H9V16H8zM12,15H13V16H12zM13,15H14V16H13zM15,15H16V16H15zM17,15H18V16H17zM18,15H19V16H18zM19,15H20V16H19zM21,15H22V16H21zM23,15H24V16H23zM24,15H25V16H24zM26,15H27V16H26zM28,15H29V16H28zM31,15H32V16H31zM32,15H33V16H32zM33,15H34V16H33zM4,16H5V17H4zM6,16H7V17H6zM8,16H9V17H8zM10,16H11V17H10zM12,16H13V17H12zM13,16H14V17H13zM16,16H17V17H16zM17,16H18V17H17zM24,16H25V17H24zM27,16H28V17H27zM28,16H29V17H28zM29,16H30V17H29zM32,16H33V17H32zM5,17H6V18H5zM7,17H8V18H7zM11,17H12V18H11zM13,17H14V18H13zM14,17H15V18H14zM15,17H16V18H15zM16,17H17V18H16zM18,17H19V18H18zM19,17H20V18H19zM21,17H22V18H21zM22,17H23V18H22zM23,17H24V18H23zM24,17H25V18H24zM25,17H26V18H25zM31,17H32V18H31zM33,17H34V18H33zM4,18H5V19H4zM5,18H6V19H5zM6,18H7V19H6zM9,18H10V19H9zM10,18H11V19H10zM11,18H12V19H11zM13,18H14V19H13zM15,18H16V19H15zM17,18H18V19H17zM22,18H23V19H22zM23,18H24V19H23zM24,18H25V19H24zM25,18H26V19H25zM28,18H29V19H28zM29,18H30V19H29zM31,18H32V19H31zM33,18H34V19H33zM5,19H6V20H5zM7,19H8V20H7zM11,19H12V20H11zM12,19H13V20H12zM14,19H15V20H14zM17,19H18V20H17zM20,19H21V20H20zM22,19H23V20H22zM25,19H26V20H25zM26,19H27V20H26zM29,19H30V20H29zM30,19H31V20H30zM32,19H33V20H32zM33,19H34V20H33zM34,19H35V20H34zM36,19H37V20H36zM4,20H5V21H4zM6,20H7V21H6zM10,20H11V21H10zM12,20H13V21H12zM14,20H15V21H14zM15,20H16V21H15zM17,20H18V21H17zM18,20H19V21H18zM20,20H21V21H20zM23,20H24V21H23zM24,20H25V21H24zM25,20H26V21H25zM27,20H28V21H27zM28,20H29V21H28zM29,20H30V21H29zM30,20H31V21H30zM32,20H33V21H32zM33,20H34V21H33zM34,20H35V21H34zM36,20H37V21H36zM4,21H5V22H4zM5,21H6V22H5zM9,21H10V22H9zM12,21H13V22H12zM13,21H14V22H13zM14,21H15V22H14zM15,21H16V22H15zM16,21H17V22H16zM19,21H20V22H19zM20,21H21V22H20zM21,21H22V22H21zM25,21H26V22H25zM26,21H27V22H26zM27,21H28V22H27zM29,21H30V22H29zM30,21H31V22H30zM31,21H32V22H31zM32,21H33V22H32zM34,21H35V22H34zM35,21H36V22H35zM36,21H37V22H36zM6,22H7V23H6zM8,22H9V23H8zM10,22H11V23H10zM11,22H12V23H11zM12,22H13V23H12zM13,22H14V23H13zM15,22H16V23H15zM17,22H18V23H17zM20,22H21V23H20zM22,22H23V23H22zM23,22H24V23H23zM24,22H25V23H24zM25,22H26V23H25zM30,22H31V23H30zM31,22H32V23H31zM32,22H33V23H32zM34,22H35V23H34zM35,22H36V23H35zM6,23H7V24H6zM7,23H8V24H7zM8,23H9V24H8zM11,23H12V24H11zM13,23H14V24H13zM14,23H15V24H14zM15,23H16V24H15zM17,23H18V24H17zM21,23H22V24H21zM24,23H25V24H24zM31,23H32V24H31zM32,23H33V24H32zM35,23H36V24H35zM36,23H37V24H36zM5,24H6V25H5zM6,24H7V25H6zM9,24H10V25H9zM10,24H11V25H10zM12,24H13V25H12zM14,24H15V25H14zM17,24H18V25H17zM19,24H20V25H19zM24,24H25V25H24zM25,24H26V25H25zM33,24H34V25H33zM34,24H35V25H34zM4,25H5V26H4zM6,25H7V26H6zM8,25H9V26H8zM11,25H12V26H11zM13,25H14V26H13zM16,25H17V26H16zM18,25H19V26H18zM19,25H20V26H19zM20,25H21V26H20zM22,25H23V26H22zM23,25H24V26H23zM24,25H25V26H24zM25,25H26V26H25zM27,25H28V26H27zM30,25H31V26H30zM34,25H35V26H34zM35,25H36V26H35zM36,25H37V26H36zM6,26H7V27H6zM7,26H8V27H7zM9,26H10V27H9zM10,26H11V27H10zM13,26H14V27H13zM14,26H15V27H14zM16,26H17V27H16zM17,26H18V27H17zM18,26H19V27H18zM19,26H20V27H19zM20,26H21V27H20zM21,26H22V27H21zM23,26H24V27H23zM26,26H27V27H26zM27,26H28V27H27zM28,26H29V27H28zM30,26H31V27H30zM31,26H32V27H31zM32,26H33V27H32zM33,26H34V27H33zM34,26H35V27H34zM35,26H36V27H35zM36,26H37V27H36zM5,27H6V28H5zM6,27H7V28H6zM7,27H8V28H7zM8,27H9V28H8zM9,27H10V28H9zM12,27H13V28H12zM13,27H14V28H13zM14,27H15V28H14zM16,27H17V28H16zM17,27H18V28H17zM19,27H20V28H19zM21,27H22V28H21zM23,27H24V28H23zM24,27H25V28H24zM26,27H27V28H26zM29,27H30V28H29zM32,27H33V28H32zM33,27H34V28H33zM4,28H5V29H4zM6,28H7V29H6zM10,28H11V29H10zM12,28H13V29H12zM14,28H15V29H14zM16,28H17V29H16zM18,28H19V29H18zM20,28H21V29H20zM21,28H22V29H21zM22,28H23V29H22zM26,28H27V29H26zM28,28H29V29H28zM29,28H30V29H29zM30,28H31V29H30zM31,28H32V29H31zM32,28H33V29H32zM36,28H37V29H36zM12,29H13V30H12zM13,29H14V30H13zM16,29H17V30H16zM19,29H20V30H19zM20,29H21V30H20zM22,29H23V30H22zM25,29H26V30H25zM27,29H28V30H27zM28,29H29V30H28zM32,29H33V30H32zM4,30H5V31H4zM5,30H6V31H5zM6,30H7V31H6zM7,30H8V31H7zM8,30H9V31H8zM9,30H10V31H9zM10,30H11V31H10zM12,30H13V31H12zM19,30H20V31H19zM20,30H21V31H20zM21,30H22V31H21zM22,30H23V31H22zM25,30H26V31H25zM27,30H28V31H27zM28,30H29V31H28zM30,30H31V31H30zM32,30H33V31H32zM33,30H34V31H33zM4,31H5V32H4zM10,31H11V32H10zM13,31H14V32H13zM16,31H17V32H16zM17,31H18V32H17zM19,31H20V32H19zM20,31H21V32H20zM22,31H23V32H22zM25,31H26V32H25zM26,31H27V32H26zM27,31H28V32H27zM28,31H29V32H28zM32,31H33V32H32zM34,31H35V32H34zM35,31H36V32H35zM36,31H37V32H36zM4,32H5V33H4zM6,32H7V33H6zM7,32H8V33H7zM8,32H9V33H8zM10,32H11V33H10zM16,32H17V33H16zM19,32H20V33H19zM23,32H24V33H23zM24,32H25V33H24zM27,32H28V33H27zM28,32H29V33H28zM29,32H30V33H29zM30,32H31V33H30zM31,32H32V33H31zM32,32H33V33H32zM33,32H34V33H33zM34,32H35V33H34zM35,32H36V33H35zM4,33H5V34H4zM6,33H7V34H6zM7,33H8V34H7zM8,33H9V34H8zM10,33H11V34H10zM12,33H13V34H12zM13,33H14V34H13zM16,33H17V34H16zM17,33H18V34H17zM19,33H20V34H19zM20,33H21V34H20zM22,33H23V34H22zM23,33H24V34H23zM24,33H25V34H24zM26,33H27V34H26zM27,33H28V34H27zM28,33H29V34H28zM31,33H32V34H31zM33,33H34V34H33zM34,33H35V34H34zM35,33H36V34H35zM36,33H37V34H36zM4,34H5V35H4zM6,34H7V35H6zM7,34H8V35H7zM8,34H9V35H8zM10,34H11V35H10zM12,34H13V35H12zM14,34H15V35H14zM15,34H16V35H15zM16,34H17V35H16zM20,34H21V35H20zM21,34H22V35H21zM23,34H24V35H23zM26,34H27V35H26zM27,34H28V35H27zM29,34H30V35H29zM30,34H31V35H30zM33,34H34V35H33zM34,34H35V35H34zM4,35H5V36H4zM10,35H11V36H10zM13,35H14V36H13zM15,35H16V36H15zM16,35H17V36H16zM17,35H18V36H17zM19,35H20V36H19zM21,35H22V36H21zM24,35H25V36H24zM27,35H28V36H27zM28,35H29V36H28zM29,35H30V36H29zM33,35H34V36H33zM36,35H37V36H36zM4,36H5V37H4zM5,36H6V37H5zM6,36H7V37H6zM7,36H8V37H7zM8,36H9V37H8zM9,36H10V37H9zM10,36H11V37H10zM13,36H14V37H13zM14,36H15V37H14zM15,36H16V37H15zM16,36H17V37H16zM18,36H19V37H18zM20,36H21V37H20zM23,36H24V37H23zM25,36H26V37H25zM27,36H28V37H27zM29,36H30V37H29zM30,36H31V37H30zM31,36H32V37H31zM32,36H33V37H32zM34,36H35V37H34z" id="qr-path" fill="#000000" fill-opacity="1" fill-rule="nonzero" stroke="none" /></svg>